<?xml version="1.0" standalone="no"?>
<!DOCTYPE svg PUBLIC "-//W3C//DTD SVG 20010904//EN"
 "http://www.w3.org/TR/2001/REC-SVG-20010904/DTD/svg10.dtd">
<svg version="1.0" xmlns="http://www.w3.org/2000/svg"
 width="654.000000pt" height="654.000000pt" viewBox="0 0 654.000000 654.000000"
 preserveAspectRatio="xMidYMid meet">
<metadata>
Created by potrace 1.11, written by Peter Selinger 2001-2013
</metadata>
<g transform="translate(0.000000,654.000000) scale(0.100000,-0.100000)"
fill="#000000" stroke="none">
<path d="M3128 6105 c-2 -2 -19 -6 -38 -9 -60 -10 -82 -15 -134 -32 -53 -17
-204 -83 -221 -96 -5 -5 -37 -26 -70 -48 -140 -91 -269 -237 -361 -409 -55
-103 -78 -120 -195 -145 -80 -17 -143 -46 -239 -109 -252 -168 -404 -371 -477
-637 -33 -121 -42 -237 -30 -368 31 -324 206 -611 484 -795 62 -41 205 -115
237 -122 6 -1 18 -4 26 -8 17 -6 86 -22 140 -33 62 -13 249 -11 333 2 79 12
103 18 192 44 53 16 146 59 234 109 91 51 100 52 96 4 -8 -101 -39 -280 -50
-291 -2 -2 -37 7 -77 21 -66 24 -99 31 -121 28 -14 -2 29 -56 107 -134 l73
-75 -37 -148 c-21 -82 -47 -178 -59 -214 -12 -36 -23 -74 -25 -85 -7 -32 -142
-433 -178 -529 -19 -48 -43 -99 -54 -111 -20 -22 -89 -42 -172 -50 -54 -5
-133 -15 -162 -21 -14 -2 -41 -7 -60 -10 -19 -3 -46 -7 -60 -10 -14 -3 -47 -9
-75 -14 -27 -6 -61 -12 -75 -15 -28 -5 -35 -6 -135 -29 -79 -18 -98 -23 -248
-67 -59 -18 -103 -35 -98 -38 19 -12 324 -15 1706 -15 1434 0 1606 2 1639 13
13 5 -8 15 -72 35 -82 25 -256 69 -322 81 -31 5 -60 11 -150 31 -14 3 -34 7
-45 8 -11 2 -51 9 -90 16 -38 7 -79 14 -90 15 -11 2 -38 6 -60 9 -45 8 -87 12
-190 21 -38 3 -70 7 -71 8 0 1 -15 40 -33 87 -18 47 -37 94 -42 105 -10 24
-50 136 -52 150 -2 6 -5 15 -8 20 -5 9 -47 141 -54 170 -1 6 -5 17 -8 25 -3 8
-14 44 -25 79 l-20 64 42 45 c22 24 68 73 101 107 87 92 110 117 129 147 l17
26 -39 -9 c-22 -5 -84 -26 -138 -47 -146 -57 -151 -58 -168 -24 -8 15 -19 52
-25 82 -9 45 -32 154 -57 265 -2 11 -6 40 -9 65 -3 25 -8 56 -10 70 -10 55
-15 169 -7 174 5 3 29 -6 53 -20 108 -62 276 -136 342 -153 60 -15 108 -18
292 -16 249 2 271 7 439 91 131 66 166 92 304 227 141 139 232 304 279 507 17
78 25 313 13 390 -27 164 -81 303 -167 427 -220 319 -531 478 -913 468 -69 -2
-136 -6 -150 -9 -14 -3 -38 -8 -55 -12 -148 -28 -366 -134 -470 -228 -54 -48
-111 -77 -142 -72 -39 7 -86 64 -78 96 14 55 136 161 285 248 50 28 97 52 105
52 8 0 15 5 15 10 0 6 6 10 13 10 8 0 42 12 78 26 35 14 72 28 81 30 10 2 28
6 41 10 12 3 33 7 47 10 14 2 31 7 38 9 7 2 47 7 90 10 151 12 164 13 174 23
24 24 -124 174 -304 309 -83 62 -135 91 -225 122 -70 25 -77 26 -188 47 -67
12 -306 19 -317 9z m1161 -1029 c39 -9 94 -27 131 -43 36 -16 146 -87 167
-109 7 -7 23 -21 35 -31 32 -26 121 -131 145 -173 22 -37 76 -180 68 -180 -2
0 0 -11 5 -25 13 -33 22 -116 22 -192 0 -184 -81 -362 -229 -504 -116 -111
-167 -144 -294 -184 -95 -30 -257 -41 -344 -24 -27 6 -61 12 -74 15 -13 3 -50
16 -82 29 -240 97 -425 322 -465 565 -16 102 -4 259 30 365 1 6 7 24 11 40 13
46 60 126 105 179 110 129 296 253 411 275 46 9 316 6 358 -3z"/>
<path d="M4110 4936 c-18 -6 -38 -20 -44 -31 -17 -30 -37 -43 -86 -55 -116
-29 -208 -139 -210 -251 -1 -107 66 -189 213 -263 59 -30 98 -55 98 -65 6 -73
4 -189 -3 -204 -7 -14 -17 -17 -41 -14 -44 7 -97 27 -127 47 -64 44 -65 44
-112 -4 -54 -55 -57 -77 -12 -111 19 -14 34 -23 34 -19 0 3 6 2 13 -3 6 -6 56
-25 110 -43 105 -34 114 -42 123 -112 4 -24 10 -48 15 -54 10 -12 99 -19 100
-7 10 100 19 131 42 138 12 4 24 8 27 9 3 1 24 8 47 15 62 20 135 79 160 131
47 94 30 218 -40 293 -27 30 -141 101 -157 99 -16 -3 -51 12 -65 28 -20 22
-31 125 -21 193 9 59 26 62 114 22 l70 -33 31 35 c17 19 31 39 31 44 0 5 4 9
9 9 5 0 11 9 14 20 4 17 -8 26 -76 58 -45 22 -98 45 -117 52 -46 17 -60 29
-60 49 0 26 -42 40 -80 27z m-32 -233 c14 -26 14 -131 2 -169 -13 -38 -33 -43
-79 -19 -68 35 -67 154 1 192 33 18 66 16 76 -4z m217 -486 c23 -24 37 -59 31
-82 -8 -31 -81 -95 -109 -95 -32 0 -47 36 -47 113 0 77 7 105 29 109 16 4 74
-23 96 -45z"/>
<path d="M2434 1072 c-25 -2 -33 -10 -46 -45 -16 -40 -79 -187 -119 -273 -55
-123 -110 -268 -107 -287 2 -17 11 -23 36 -25 46 -5 77 19 94 70 l15 43 178 0
179 0 10 -33 c5 -18 20 -44 33 -58 19 -21 31 -25 66 -23 46 3 59 14 47 38 -4
9 -34 77 -65 151 -31 74 -63 149 -70 165 -28 66 -64 153 -86 208 -13 32 -31
63 -40 68 -16 8 -49 8 -125 1z m100 -225 c50 -107 77 -179 73 -192 -7 -16
-211 -15 -228 2 -8 8 -7 24 7 65 26 80 88 188 107 188 7 0 25 -28 41 -63z"/>
<path d="M2830 1030 c0 -63 10 -68 130 -75 51 -2 94 -6 96 -8 4 -4 11 -229 13
-404 l1 -103 60 0 60 0 1 88 c2 210 7 414 11 417 2 3 49 7 104 10 113 7 124
14 124 82 l0 43 -300 0 -300 0 0 -50z"/>
<path d="M3590 760 l0 -320 60 0 60 0 1 103 c2 142 4 169 15 190 10 17 11 17
26 0 18 -22 44 -71 93 -176 46 -100 63 -117 119 -117 79 0 86 7 160 153 61
123 90 167 100 156 12 -11 23 -129 25 -256 l1 -53 60 0 60 0 0 321 0 320 -52
-4 c-99 -9 -87 4 -207 -229 -42 -81 -91 -168 -109 -194 -32 -45 -34 -46 -47
-27 -13 18 -135 260 -180 356 -10 21 -30 51 -45 67 -25 26 -35 30 -84 30 l-56
0 0 -320z"/>
</g>
</svg>
